<svg width="49" height="41" viewBox="0 0 49 41" fill="none" xmlns="http://www.w3.org/2000/svg">
<path d="M41.3382 5.84828C41.265 5.69482 41.1134 5.58963 40.8868 5.62609C35.6573 6.54291 30.4294 7.49809 25.2065 8.4516C19.9536 9.41508 14.7023 10.3836 9.45109 11.3354C6.49894 11.8727 3.53846 12.4016 0.581317 12.9239C0.198138 12.9902 -0.056933 13.5084 0.311128 13.7806C2.72766 15.6053 5.09419 17.4966 7.37406 19.4946C7.76088 23.128 8.33928 26.7365 8.72443 30.3649C8.72608 30.4199 8.73772 30.4716 8.75436 30.5217C8.80927 30.7201 8.94416 30.8253 9.10407 30.8555C9.22567 30.8873 9.36228 30.8807 9.49392 30.7925C11.2868 29.6739 13.0664 28.5319 14.8593 27.4132C15.8018 28.4779 16.7377 29.5559 17.7418 30.5556C18.8126 31.622 20.0517 32.4102 21.2508 33.3117C21.7555 33.694 22.2917 34.0547 22.4831 34.6801C22.6328 35.1637 22.8009 35.6691 23.3306 35.843C23.3439 35.8497 23.3556 35.8514 23.3672 35.8531C23.5454 35.9549 23.7637 35.9435 23.9104 35.7169C23.9154 35.7152 23.9137 35.7102 23.9187 35.7085C23.942 35.6786 23.9604 35.6502 23.982 35.6152C28.8042 28.2157 33.3132 20.6257 37.664 12.9439C38.9075 10.741 40.1445 8.53474 41.3747 6.32515C41.468 6.13851 41.4398 5.97009 41.3382 5.84828ZM11.7021 23.9622C11.7071 23.9439 11.7121 23.9255 11.7221 23.9055C12.5513 24.83 13.374 25.7512 14.2032 26.6757C12.8202 27.5413 11.4455 28.4152 10.0642 29.2858C10.6063 27.5107 11.1533 25.734 11.7021 23.9622ZM11.3394 22.488C11.1512 22.5561 11.0578 22.6928 11.0345 22.8395C11.0311 22.8461 11.0311 22.8461 11.0278 22.8528C10.4924 24.5812 9.96368 26.313 9.42829 28.0414C9.07949 25.2234 8.66572 22.4103 8.35857 19.584C15.0063 17.3564 21.5924 14.9437 28.102 12.3342C26.4374 13.2712 24.7912 14.2466 23.1932 15.3004C21.3753 16.4941 19.6256 17.7928 17.8144 19.0064C15.7781 20.3783 13.6653 21.67 11.3394 22.488Z" fill="#FFC700"/>
</svg>
